<?xml version="1.0" encoding="UTF-8"?> <svg xmlns="http://www.w3.org/2000/svg" width="150" height="31" viewBox="0 0 150 31" fill="none"><g clip-path="url(#clip0_10426_13649)"><path d="M15.6378 19.0491L17.2125 17.992C17.3377 17.8911 17.4105 17.7386 17.4105 17.5775V16.0199M13.4245 23.1589V19.5937C13.4245 19.4275 13.347 19.2709 13.215 19.1703L12.2615 18.4441C12.1287 18.3429 12.051 18.1847 12.0521 18.0173L12.074 14.4621C12.0753 14.255 12.1963 14.0675 12.3841 13.9816L13.4905 13.4755C13.6822 13.3878 13.8039 13.1945 13.8005 12.9832L13.7807 11.7485M10.2866 23.6927L10.3073 21.41C10.3089 21.2348 10.3964 21.0716 10.5412 20.9738L11.0722 20.615C11.2215 20.514 11.3096 20.3439 11.306 20.1632L11.2864 19.2023" stroke="#F0175E" stroke-width="0.511736"></path><path d="M16.2282 24.1064L9.0563 24.1415L9.06528 23.8473C9.11213 22.3111 8.44209 20.8645 7.50685 19.6474C2.47298 13.0963 6.69008 5.68994 12.7999 5.68994C19.003 5.6899 22.9046 13.0209 17.6781 19.8611C16.8792 20.9066 16.3177 22.25 16.2542 23.5659L16.2282 24.1064Z" stroke="#F0175E" stroke-width="1.16968"></path><path d="M9.25744 28.5112L9.26638 25.8104L16.0132 25.7747L16.0521 28.5086L16.351 28.5146C16.3681 29.1668 15.6199 29.5012 14.976 29.352L14.5798 29.9192C14.4814 30.0601 14.321 30.1445 14.1493 30.1457L11.2779 30.1644C11.1027 30.1656 10.9382 30.0797 10.8386 29.9351L10.4026 29.3023C9.80825 29.3835 8.93471 29.2402 8.91718 28.51L9.25744 28.5112Z" fill="#F0175E"></path><path d="M8.33496 25.7337H16.8574M8.34811 27.0932H16.8679M9.2665 25.8103L9.25755 28.5111L8.91729 28.5099C8.93482 29.2401 9.80837 29.3834 10.4027 29.3023L10.8387 29.9351C10.9383 30.0797 11.1028 30.1655 11.278 30.1643L14.1494 30.1456C14.3211 30.1444 14.4815 30.0601 14.5799 29.9191L14.9761 29.352C15.62 29.5011 16.3682 29.1667 16.3511 28.5145L16.0522 28.5085L16.0133 25.7746L9.2665 25.8103Z" stroke="#F0175E" stroke-width="1.02347"></path><path d="M14.0863 23.7173V21.798C14.0863 21.6412 14.1553 21.4924 14.2747 21.3914L15.3456 20.4866C15.4663 20.3846 15.5355 20.2337 15.534 20.0752L15.5131 17.7304C15.5117 17.5642 15.4327 17.408 15.2998 17.3087L14.5285 16.7324C14.3942 16.6321 14.3151 16.474 14.3151 16.306V15.1945M13.4138 23.7667L13.3762 19.5927C13.3746 19.4129 13.2825 19.246 13.1314 19.1492L12.143 18.5166C11.9905 18.4189 11.8982 18.2499 11.8982 18.0685V14.3066C11.8982 14.0878 11.7645 13.8913 11.5614 13.8115L10.473 13.3841C10.2733 13.3057 10.1404 13.1142 10.1363 12.899L10.0921 10.5232M9.86822 23.742L9.83049 20.2414C9.82864 20.0718 9.74626 19.9132 9.60872 19.8145L9.12528 19.468C8.98209 19.3652 8.89904 19.1979 8.90369 19.0213L8.92926 18.0508" stroke="#F0175E" stroke-width="0.731052"></path><path d="M9.85411 17.3643C9.85411 17.8377 9.47164 18.2215 8.99981 18.2215C8.52798 18.2215 8.14551 17.8377 8.14551 17.3643C8.14551 16.8909 8.52798 16.5071 8.99981 16.5071C9.47164 16.5071 9.85411 16.8909 9.85411 17.3643Z" fill="#F0175E"></path><path d="M14.8842 14.7928C14.8842 15.2116 14.5459 15.5511 14.1284 15.5511C13.7111 15.5511 13.3727 15.2116 13.3727 14.7928C13.3727 14.374 13.7111 14.0345 14.1284 14.0345C14.5459 14.0345 14.8842 14.374 14.8842 14.7928Z" fill="#F0175E"></path><path d="M11.8224 19.0271C11.8224 19.343 11.5671 19.5992 11.2522 19.5992C10.9373 19.5992 10.682 19.343 10.682 19.0271C10.682 18.7111 10.9373 18.455 11.2522 18.455C11.5671 18.455 11.8224 18.7111 11.8224 19.0271Z" fill="#F0175E"></path><path d="M14.6511 11.1993C14.6511 11.6727 14.2687 12.0565 13.7969 12.0565C13.325 12.0565 12.9426 11.6727 12.9426 11.1993C12.9426 10.7259 13.325 10.3422 13.7969 10.3422C14.2687 10.3422 14.6511 10.7259 14.6511 11.1993Z" fill="#F0175E"></path><path d="M11.7924 9.41904C11.7924 10.2202 11.1451 10.8696 10.3467 10.8696C9.5482 10.8696 8.90094 10.2202 8.90094 9.41904C8.90094 8.61788 9.5482 7.96844 10.3467 7.96844C11.1451 7.96844 11.7924 8.61788 11.7924 9.41904Z" fill="#F0175E"></path><path d="M18.6446 15.2544C18.6446 15.9646 18.0709 16.5402 17.3631 16.5402C16.6555 16.5402 16.0817 15.9646 16.0817 15.2544C16.0817 14.5443 16.6555 13.9687 17.3631 13.9687C18.0709 13.9687 18.6446 14.5443 18.6446 15.2544Z" fill="#F0175E"></path><path d="M7.71093 4.4032L6.52389 2.35189M12.8272 3.20641L12.7513 0.835632M17.5193 4.63621L18.809 2.64826M20.9669 8.47155L23.0127 7.28289M22.0939 13.502L24.458 13.5016M20.6043 18.366L22.6495 19.5559M3.62211 17.7699L1.57768 18.961M2.36404 12.7049L0 12.7107M3.9549 7.90525L1.90471 6.72427" stroke="#F0175E" stroke-width="1.16968" stroke-linecap="round"></path><path d="M44.528 9.299V20.8164C44.528 20.9736 44.4692 21.1112 44.3516 21.2292C44.2341 21.347 44.0971 21.4061 43.9402 21.4061H42.6278C42.4711 21.4061 42.3339 21.347 42.2164 21.2292C42.0988 21.1112 42.0402 20.9736 42.0402 20.8164V16.4924H35.3212V20.8164C35.3212 20.9736 35.2626 21.1112 35.1451 21.2292C35.0275 21.347 34.8904 21.4061 34.7336 21.4061H33.4016C33.2449 21.4061 33.1078 21.347 32.9904 21.2292C32.8728 21.1112 32.814 20.9736 32.814 20.8164V9.299C32.814 8.46041 33.0099 7.90351 33.4016 7.62837C33.7935 7.35321 34.4595 7.21564 35.3996 7.21564H41.9422C42.8824 7.21564 43.5485 7.35321 43.9402 7.62837C44.3322 7.90351 44.528 8.46041 44.528 9.299ZM35.3212 14.2323H42.0402V10.0655C42.0402 9.79036 41.9879 9.62656 41.8835 9.57414C41.7921 9.50864 41.57 9.47586 41.2175 9.47586H36.144C35.7784 9.47586 35.5499 9.50864 35.4584 9.57414C35.367 9.62656 35.3212 9.79036 35.3212 10.0655V14.2323Z" fill="#F0175E"></path><path d="M58.2766 19.3228C58.2766 20.1613 58.0808 20.7182 57.6889 20.9934C57.2971 21.2685 56.6311 21.4061 55.691 21.4061H49.8929V24.7473C49.8929 24.9045 49.8341 25.0421 49.7167 25.1601C49.5991 25.2779 49.4617 25.337 49.3052 25.337H47.9731C47.8162 25.337 47.6792 25.2779 47.5617 25.1601C47.4443 25.0421 47.3855 24.9045 47.3855 24.7473V12.6796C47.3855 11.841 47.5813 11.2841 47.9731 11.0089C48.365 10.7338 49.0309 10.5962 49.9711 10.5962H55.691C56.6311 10.5962 57.2971 10.7338 57.6889 11.0089C58.0808 11.2841 58.2766 11.841 58.2766 12.6796V19.3228ZM54.9662 19.1459C55.3189 19.1459 55.541 19.1197 55.6322 19.0672C55.7367 19.0017 55.7889 18.8314 55.7889 18.5562V13.4461C55.7889 13.1709 55.7367 13.0071 55.6322 12.9547C55.541 12.8892 55.3189 12.8565 54.9662 12.8565H50.7156C50.3498 12.8565 50.1215 12.8892 50.0299 12.9547C49.9383 13.0071 49.8929 13.1709 49.8929 13.4461V19.1459H54.9662Z" fill="#F0175E"></path><path d="M71.801 19.3228C71.801 20.1613 71.6053 20.7182 71.2134 20.9934C70.8216 21.2685 70.1556 21.4061 69.2153 21.4061H63.4173V24.7473C63.4173 24.9045 63.3586 25.0421 63.241 25.1601C63.1236 25.2779 62.9862 25.337 62.8297 25.337H61.4976C61.3407 25.337 61.2037 25.2779 61.0862 25.1601C60.9686 25.0421 60.91 24.9045 60.91 24.7473V12.6796C60.91 11.841 61.1056 11.2841 61.4976 11.0089C61.8894 10.7338 62.5553 10.5962 63.4956 10.5962H69.2153C70.1556 10.5962 70.8216 10.7338 71.2134 11.0089C71.6053 11.2841 71.801 11.841 71.801 12.6796V19.3228ZM68.4907 19.1459C68.8433 19.1459 69.065 19.1197 69.1565 19.0672C69.2612 19.0017 69.3134 18.8314 69.3134 18.5562V13.4461C69.3134 13.1709 69.2612 13.0071 69.1565 12.9547C69.065 12.8892 68.8433 12.8565 68.4907 12.8565H64.2401C63.8741 12.8565 63.6456 12.8892 63.5543 12.9547C63.4628 13.0071 63.4173 13.1709 63.4173 13.4461V19.1459H68.4907Z" fill="#F0175E"></path><path d="M90.0658 7.80527L90.0462 20.8164C90.0462 20.9736 89.9876 21.1112 89.87 21.2292C89.7525 21.347 89.6155 21.4061 89.4586 21.4061H88.1265C87.97 21.4061 87.8326 21.347 87.715 21.2292C87.5976 21.1112 87.5388 20.9736 87.5388 20.8164V10.2424L83.9739 20.8558C83.8434 21.2358 83.582 21.4257 83.1905 21.4257H81.6821C81.2901 21.4257 81.0291 21.2358 80.8986 20.8558L77.157 10.2031V20.8164C77.157 20.9736 77.0983 21.1112 76.9807 21.2292C76.8633 21.347 76.7263 21.4061 76.5694 21.4061H75.2373C75.0808 21.4061 74.9438 21.347 74.8263 21.2292C74.7087 21.1112 74.65 20.9736 74.65 20.8164V7.80527C74.65 7.64803 74.7087 7.51046 74.8263 7.39252C74.9438 7.2746 75.0808 7.21564 75.2373 7.21564H78.0973C78.4892 7.21564 78.7503 7.40562 78.8807 7.78559L82.446 18.1041L85.8346 7.78559C85.9655 7.40562 86.2265 7.21564 86.6184 7.21564H89.478C89.6349 7.21564 89.7719 7.2746 89.8895 7.39252C90.007 7.51046 90.0658 7.64803 90.0658 7.80527Z" fill="#F0175E"></path><path d="M103.588 19.3228C103.588 20.1613 103.393 20.7182 103.001 20.9934C102.609 21.2685 101.943 21.4061 101.003 21.4061H95.2829C94.3426 21.4061 93.6767 21.2685 93.2849 20.9934C92.8929 20.7182 92.6973 20.1613 92.6973 19.3228V16.7284C92.6973 15.8898 92.8929 15.3328 93.2849 15.0577C93.6767 14.7826 94.3426 14.6449 95.2829 14.6449H101.081V13.4461C101.081 13.1709 101.029 13.0071 100.924 12.9547C100.833 12.8892 100.611 12.8565 100.259 12.8565H93.5394C93.383 12.8565 93.2456 12.7975 93.128 12.6796C93.0105 12.5616 92.9517 12.4241 92.9517 12.2668V11.1858C92.9517 11.0286 93.0105 10.891 93.128 10.7731C93.2456 10.6551 93.383 10.5962 93.5394 10.5962H101.003C101.943 10.5962 102.609 10.7338 103.001 11.0089C103.393 11.2841 103.588 11.841 103.588 12.6796V19.3228ZM100.259 19.1459C100.611 19.1459 100.833 19.1197 100.924 19.0672C101.029 19.0017 101.081 18.8314 101.081 18.5562V16.9052H96.0076C95.642 16.9052 95.4134 16.9381 95.3222 17.0036C95.2307 17.0559 95.1849 17.2197 95.1849 17.4949V18.5562C95.1849 18.8314 95.2307 19.0017 95.3222 19.0672C95.4134 19.1197 95.642 19.1459 96.0076 19.1459H100.259Z" fill="#F0175E"></path><path d="M111.909 16.0405L115.689 20.9147C115.768 21.0064 115.781 21.1112 115.728 21.2292C115.676 21.3341 115.591 21.3864 115.474 21.3864H113.946C113.554 21.3864 113.241 21.2292 113.006 20.9147L110.165 17.1608H108.735V20.7969C108.735 20.9541 108.676 21.0917 108.559 21.2096C108.441 21.3275 108.304 21.3864 108.148 21.3864H106.816C106.659 21.3864 106.522 21.3275 106.404 21.2096C106.287 21.0917 106.228 20.9541 106.228 20.7969V6.2526C106.228 6.09535 106.287 5.95778 106.404 5.83986C106.522 5.72193 106.659 5.66296 106.816 5.66296H108.148C108.304 5.66296 108.441 5.72193 108.559 5.83986C108.676 5.95778 108.735 6.09535 108.735 6.2526V14.9005H110.126L113.104 11.0483C113.339 10.7469 113.652 10.5962 114.044 10.5962H115.572C115.689 10.5962 115.774 10.6486 115.826 10.7535C115.879 10.8583 115.866 10.9631 115.787 11.0679L111.909 16.0405Z" fill="#F0175E"></path><path d="M127.914 19.7355V20.8165C127.914 20.9736 127.855 21.1112 127.737 21.2292C127.62 21.3472 127.483 21.4061 127.326 21.4061H120.137C119.197 21.4061 118.531 21.2685 118.139 20.9934C117.747 20.7182 117.551 20.1613 117.551 19.3228V12.6796C117.551 11.841 117.747 11.2841 118.139 11.0089C118.531 10.7338 119.197 10.5962 120.137 10.5962H125.857C126.797 10.5962 127.463 10.7338 127.855 11.0089C128.247 11.2841 128.442 11.841 128.442 12.6796V15.1363C128.442 15.975 128.247 16.5318 127.855 16.8069C127.463 17.0821 126.797 17.2197 125.857 17.2197H120.059V18.5562C120.059 18.8314 120.124 19.0017 120.254 19.0672C120.385 19.1197 120.699 19.1459 121.195 19.1459H127.326C127.483 19.1459 127.62 19.2048 127.737 19.3228C127.855 19.4406 127.914 19.5782 127.914 19.7355ZM125.132 14.9594C125.485 14.9594 125.707 14.9332 125.798 14.8809C125.903 14.8153 125.955 14.6449 125.955 14.3699V13.4461C125.955 13.1709 125.903 13.0071 125.798 12.9547C125.707 12.8892 125.485 12.8565 125.132 12.8565H120.881C120.515 12.8565 120.287 12.8892 120.196 12.9547C120.104 13.0071 120.059 13.1709 120.059 13.4461V14.9594H125.132Z" fill="#F0175E"></path><path d="M133.258 13.4461V20.8165C133.258 20.9736 133.2 21.1112 133.082 21.2292C132.964 21.3472 132.827 21.4061 132.671 21.4061H131.338C131.182 21.4061 131.045 21.3472 130.927 21.2292C130.81 21.1112 130.751 20.9736 130.751 20.8165V12.6796C130.751 11.841 130.947 11.2841 131.338 11.0089C131.73 10.7338 132.396 10.5962 133.337 10.5962H138.038C138.195 10.5962 138.332 10.6551 138.449 10.7731C138.567 10.891 138.625 11.0286 138.625 11.1858V12.2668C138.625 12.4241 138.567 12.5616 138.449 12.6796C138.332 12.7975 138.195 12.8565 138.038 12.8565H134.081C133.715 12.8565 133.487 12.8892 133.395 12.9547C133.304 13.0071 133.258 13.1709 133.258 13.4461Z" fill="#F0175E"></path><path d="M150.208 19.3228C150.208 20.1613 150.012 20.7182 149.62 20.9934C149.229 21.2685 148.563 21.4061 147.622 21.4061H141.099C140.943 21.4061 140.806 21.3472 140.688 21.2292C140.571 21.1112 140.512 20.9736 140.512 20.8165V19.7355C140.512 19.5782 140.571 19.4406 140.688 19.3228C140.806 19.2048 140.943 19.1459 141.099 19.1459H146.878C147.245 19.1459 147.473 19.1197 147.563 19.0672C147.655 19.0017 147.701 18.8314 147.701 18.5562V17.77C147.701 17.4948 147.655 17.3311 147.563 17.2786C147.473 17.2131 147.245 17.1804 146.878 17.1804H142.549C141.609 17.1804 140.943 17.0428 140.551 16.7676C140.159 16.4924 139.963 15.9357 139.963 15.097V12.6796C139.963 11.841 140.159 11.2841 140.551 11.0089C140.943 10.7338 141.609 10.5962 142.549 10.5962H149.033C149.189 10.5962 149.327 10.6551 149.444 10.7731C149.562 10.891 149.62 11.0286 149.62 11.1858V12.2668C149.62 12.4241 149.562 12.5616 149.444 12.6796C149.327 12.7975 149.189 12.8565 149.033 12.8565H143.274C142.908 12.8565 142.68 12.8892 142.588 12.9547C142.497 13.0071 142.451 13.1709 142.451 13.4461V14.3306C142.451 14.5664 142.49 14.7236 142.569 14.8022C142.647 14.8808 142.804 14.9201 143.039 14.9201H147.622C148.563 14.9201 149.229 15.0577 149.62 15.3328C150.012 15.608 150.208 16.1649 150.208 17.0036V19.3228Z" fill="#F0175E"></path></g><defs><clipPath id="clip0_10426_13649"><rect width="149.573" height="31" fill="white"></rect></clipPath></defs></svg> 